<mxfile host="app.diagrams.net" modified="2022-04-02T15:31:00.452Z" agent="5.0 (Macintosh; Intel Mac OS X 10_15_7) AppleWebKit/537.36 (KHTML, like Gecko) Chrome/99.0.4844.84 Safari/537.36" etag="34iUHqGCNAOamM6LovW4" version="17.2.3" type="github">
  <diagram id="NbJqlMsGK9g4cn4cJewh" name="Page-1">
    <mxGraphModel dx="1186" dy="739" grid="1" gridSize="10" guides="1" tooltips="1" connect="1" arrows="1" fold="1" page="1" pageScale="1" pageWidth="827" pageHeight="1169" math="0" shadow="0">
      <root>
        <mxCell id="0" />
        <mxCell id="1" parent="0" />
        <mxCell id="rq1waJ9IVGkN5ey4Am_p-1" value="IoT node" style="shape=umlFrame;whiteSpace=wrap;html=1;" parent="1" vertex="1">
          <mxGeometry x="260" y="30" width="650" height="550" as="geometry" />
        </mxCell>
        <mxCell id="ue-XuLcL9HTwdMkVsJ0a-4" style="edgeStyle=none;rounded=0;orthogonalLoop=1;jettySize=auto;html=1;" parent="1" source="rq1waJ9IVGkN5ey4Am_p-5" target="ue-XuLcL9HTwdMkVsJ0a-3" edge="1">
          <mxGeometry relative="1" as="geometry" />
        </mxCell>
        <mxCell id="tAsxQ46Qxz7Gj7yIOgqt-1" style="rounded=0;orthogonalLoop=1;jettySize=auto;html=1;entryX=0;entryY=0.5;entryDx=0;entryDy=0;strokeColor=#000000;" edge="1" parent="1" source="rq1waJ9IVGkN5ey4Am_p-5" target="rq1waJ9IVGkN5ey4Am_p-26">
          <mxGeometry relative="1" as="geometry" />
        </mxCell>
        <mxCell id="tAsxQ46Qxz7Gj7yIOgqt-2" style="edgeStyle=none;rounded=0;orthogonalLoop=1;jettySize=auto;html=1;strokeColor=#000000;" edge="1" parent="1" source="rq1waJ9IVGkN5ey4Am_p-5" target="KfBX19iLClI_ofNLciE3-1">
          <mxGeometry relative="1" as="geometry" />
        </mxCell>
        <mxCell id="tAsxQ46Qxz7Gj7yIOgqt-3" style="edgeStyle=none;rounded=0;orthogonalLoop=1;jettySize=auto;html=1;strokeColor=#000000;" edge="1" parent="1" source="rq1waJ9IVGkN5ey4Am_p-5" target="rq1waJ9IVGkN5ey4Am_p-30">
          <mxGeometry relative="1" as="geometry" />
        </mxCell>
        <mxCell id="rq1waJ9IVGkN5ey4Am_p-5" value="School user" style="shape=umlActor;verticalLabelPosition=bottom;verticalAlign=top;html=1;" parent="1" vertex="1">
          <mxGeometry x="70" y="285" width="30" height="60" as="geometry" />
        </mxCell>
        <mxCell id="rq1waJ9IVGkN5ey4Am_p-26" value="calibrate water level" style="ellipse;whiteSpace=wrap;html=1;" parent="1" vertex="1">
          <mxGeometry x="410" y="230" width="140" height="70" as="geometry" />
        </mxCell>
        <mxCell id="rq1waJ9IVGkN5ey4Am_p-30" value="View latest data" style="ellipse;whiteSpace=wrap;html=1;" parent="1" vertex="1">
          <mxGeometry x="330" y="120" width="140" height="70" as="geometry" />
        </mxCell>
        <mxCell id="KfBX19iLClI_ofNLciE3-1" value="calibrate EC" style="ellipse;whiteSpace=wrap;html=1;" parent="1" vertex="1">
          <mxGeometry x="414" y="420.0000000000001" width="140" height="70" as="geometry" />
        </mxCell>
        <mxCell id="ue-XuLcL9HTwdMkVsJ0a-3" value="calibrate pH" style="ellipse;whiteSpace=wrap;html=1;" parent="1" vertex="1">
          <mxGeometry x="515" y="320.0000000000001" width="140" height="70" as="geometry" />
        </mxCell>
      </root>
    </mxGraphModel>
  </diagram>
</mxfile>
